<svg width="512" height="512" viewBox="0 0 512 512" fill="none" xmlns="http://www.w3.org/2000/svg">
<g clip-path="url(#clip0_212_16)">
<rect width="512" height="512" rx="256" fill="#22C55E"/>
<path d="M289 552.5C227.98 491.292 196.465 454.256 132.5 396L234.5 253.5L334.5 137.5L508 311L544.5 413.5L289 552.5Z" fill="#169244"/>
<path d="M269 116H133C130.239 116 128 118.239 128 121V391C128 393.761 130.239 396 133 396H284C304 396 369.5 379 369.5 315C369.5 297 358 268.5 332.5 256C332.5 256 322.5 250.5 322.5 247C322.5 243.5 332 237.5 332 237.5C332 237.5 359 222 359 181C359 147.5 319 116 269 116Z" fill="white"/>
<path d="M262 280H196C193.239 280 191 282.239 191 285V334C191 336.761 193.239 339 196 339H262C285.5 339 302.5 329 302.5 310.5C302.5 292 290 280 262 280Z" fill="#169244"/>
<path d="M262 168.5H196C193.239 168.5 191 170.739 191 173.5V221.5C191 224.261 193.239 226.5 196 226.5H262C285.5 226.5 293.5 215 293.5 196.5C293.5 181 280.5 168.5 262 168.5Z" fill="#169244"/>
</g>
<defs>
<clipPath id="clip0_212_16">
<rect width="512" height="512" rx="256" fill="white"/>
</clipPath>
</defs>
</svg>
